<svg width="100%" height="60" viewBox="0 0 810 82" fill="none" xmlns="http://www.w3.org/2000/svg">
	<g opacity="0.5">
		<path d="M1 27.2597C6.78002 22.9416 27.423 20.8823 63.7545 47.1892C109.169 80.0728 228.28 94.2461 222.5 22.5C217.215 -2.61115 184.86 -1.13986 176.465 4.34075C170.685 8.32664 162.593 21.5797 176.465 42.705C193.805 69.1116 216.512 115.946 324.268 38.2209C432.024 -39.5041 615.334 68.1151 663.225 66.1221C701.539 64.5278 755.706 43.5354 778 33.2385" stroke="#008FD5" stroke-dasharray="3 5"></path>
		<path d="M776.923 13.5389L764 21L786.416 28.9856L782 52.1769L794.923 44.7158L800.775 20.6955L776.923 13.5389Z" fill="#008FD5"></path>
	</g>
</svg>